<svg width="87" height="100" viewBox="0 0 87 100" fill="none" xmlns="http://www.w3.org/2000/svg">
<g clip-path="url(#clip0_80441_7167)">
<path d="M44.4036 25.3438C43.0227 25.3408 41.655 25.6116 40.3787 26.1408C39.1024 26.67 37.9427 27.447 36.9663 28.4272C35.99 29.4076 35.2161 30.5719 34.689 31.8532C34.162 33.1346 33.8922 34.5079 33.8953 35.8942V96.9035C33.9096 97.416 34.1188 97.9035 34.48 98.266C34.841 98.6287 35.3266 98.8387 35.837 98.8531C40.8931 98.844 45.7396 96.8233 49.3149 93.2338C52.8902 89.6441 54.9027 84.7782 54.9118 79.7016V35.8942C54.9148 34.5079 54.6451 33.1346 54.118 31.8532C53.5911 30.5719 52.8172 29.4076 51.8407 28.4272C50.8643 27.447 49.7047 26.67 48.4285 26.1408C47.1522 25.6116 45.7843 25.3408 44.4036 25.3438Z" fill="#1E1E1E"/>
<path d="M13.9082 55.1604C12.5274 55.1574 11.1596 55.4283 9.8833 55.9574C8.60702 56.4865 7.4474 57.2635 6.47101 58.2439C5.49463 59.2242 4.72071 60.3884 4.19369 61.6698C3.66666 62.9513 3.39692 64.3246 3.39993 65.7109V98.0504C3.41431 98.5629 3.62351 99.0504 3.98459 99.4129C4.34566 99.7754 4.83124 99.9855 5.34168 99.9999C10.3978 99.9909 15.2443 97.9702 18.8196 94.3805C22.3949 90.791 24.4074 85.9251 24.4164 80.8485V65.7109C24.4195 64.3246 24.1497 62.9513 23.6227 61.6698C23.0956 60.3884 22.3217 59.2242 21.3454 58.2439C20.369 57.2635 19.2093 56.4865 17.9332 55.9574C16.6569 55.4283 15.289 55.1574 13.9082 55.1604Z" fill="#1E1E1E"/>
<path d="M74.9028 2.50414e-05C73.5219 -0.00299864 72.1542 0.267833 70.8779 0.796973C69.6016 1.32611 68.442 2.10314 67.4657 3.08344C66.4892 4.06375 65.7153 5.22802 65.1883 6.50943C64.6612 7.79083 64.3915 9.16414 64.3946 10.5505V97.5919C64.4089 98.1044 64.6181 98.5919 64.9792 98.9544C65.3403 99.3169 65.8258 99.527 66.3363 99.5414C71.3924 99.5324 76.2389 97.5117 79.8142 93.922C83.3895 90.3325 85.402 85.4664 85.4111 80.39V10.5505C85.4141 9.16414 85.1443 7.79083 84.6173 6.50943C84.0903 5.22802 83.3164 4.06375 82.34 3.08344C81.3635 2.10314 80.2039 1.32611 78.9277 0.796973C77.6514 0.267833 76.2836 -0.00299864 74.9028 2.50414e-05Z" fill="#1E1E1E"/>
</g>
<path fill-rule="evenodd" clip-rule="evenodd" d="M23.8221 46.2053C23.1753 46.2053 22.7442 45.7741 22.7442 45.1274V44.0495V43.2949C20.4805 46.6365 16.7078 48.7923 12.3961 48.7923C5.4974 48.7923 0 43.2949 0 36.3962C0 29.4975 5.4974 24.1079 12.3961 24.1079C16.7078 24.1079 20.4805 26.2638 22.7442 29.6053V29.3897V29.2819C22.8519 28.743 23.2831 28.3118 23.8221 28.3118C24.361 28.3118 24.7922 28.743 24.9 29.2819V29.3897V30.8988V44.0495V45.1274C24.7922 45.6663 24.361 46.2053 23.8221 46.2053ZM12.3961 26.156C6.68312 26.156 2.04805 30.791 2.04805 36.504C2.04805 42.217 6.68312 46.8521 12.3961 46.8521C18.1091 46.8521 22.7442 42.217 22.7442 36.504C22.7442 30.791 18.1091 26.156 12.3961 26.156Z" fill="#23282D"/>
<path fill-rule="evenodd" clip-rule="evenodd" d="M8.19206 35.6415C7.54531 35.6415 7.00635 36.1805 7.00635 36.8273V40.8156C7.00635 41.4623 7.54531 42.0013 8.19206 42.0013C8.83882 42.0013 9.37778 41.4623 9.37778 40.8156V36.935C9.26998 36.1805 8.73102 35.6415 8.19206 35.6415ZM12.396 33.8091C11.7492 33.8091 11.2102 34.348 11.2102 34.9948V40.9234C11.2102 41.5701 11.7492 42.1091 12.396 42.1091C13.0427 42.1091 13.5817 41.5701 13.5817 40.9234V34.9948C13.5817 34.2402 13.0427 33.8091 12.396 33.8091ZM16.7076 30.8987C16.0609 30.8987 15.5219 31.4376 15.5219 32.0844V40.9234C15.5219 41.5701 16.0609 42.1091 16.7076 42.1091C17.3544 42.1091 17.8934 41.5701 17.8934 40.9234V32.0844C17.8934 31.3299 17.3544 30.8987 16.7076 30.8987Z" fill="#9EA3A8"/>
<defs>
<clipPath id="clip0_80441_7167">
<rect width="83" height="100" fill="white" transform="translate(3.3999)"/>
</clipPath>
</defs>
</svg>
