<?xml version="1.0" encoding="utf-8"?>
<!-- Generator: Adobe Illustrator 24.3.0, SVG Export Plug-In . SVG Version: 6.00 Build 0)  -->
<svg version="1.1" id="Layer_1" xmlns="http://www.w3.org/2000/svg" xmlns:xlink="http://www.w3.org/1999/xlink" x="0px" y="0px"
	 viewBox="0 0 200 200" style="enable-background:new 0 0 200 200;" xml:space="preserve">
<style type="text/css">
	.st0{fill:#16183D;}
	.st1{fill:url(#SVGID_1_);}
</style>
<path class="st0" d="M145.94,149.29l-11.28,37.62c-1.34,4.46-7.52,4.83-9.37,0.56L82.51,89.09c-1.81-4.16,2.42-8.39,6.58-6.58
	l98.38,42.78c4.27,1.86,3.91,8.04-0.56,9.37l-37.62,11.28C147.69,146.42,146.43,147.68,145.94,149.29z"/>
<linearGradient id="SVGID_1_" gradientUnits="userSpaceOnUse" x1="-3.5839" y1="142.6075" x2="167.6225" y2="24.2259">
	<stop  offset="0" style="stop-color:#2D74B0"/>
	<stop  offset="0.5132" style="stop-color:#1773EF"/>
	<stop  offset="1" style="stop-color:#04A1E8"/>
</linearGradient>
<path class="st1" d="M0,50v100c0,27.61,22.39,50,50,50h27c8.28,0,15-6.72,15-15v0c0-8.28-6.72-15-15-15H55c-13.81,0-25-11.19-25-25
	V55c0-13.81,11.19-25,25-25h90c13.81,0,25,11.19,25,25v22c0,8.28,6.72,15,15,15h0c8.28,0,15-6.72,15-15V50c0-27.61-22.39-50-50-50
	H50C22.39,0,0,22.39,0,50z"/>
</svg>
