<?xml version="1.0" encoding="utf-8"?>
<!-- Generator: Adobe Illustrator 24.0.1, SVG Export Plug-In . SVG Version: 6.00 Build 0)  -->
<svg version="1.1" id="Layer_1" xmlns="http://www.w3.org/2000/svg" xmlns:xlink="http://www.w3.org/1999/xlink" x="0px" y="0px"
	 width="93px" height="70px" viewBox="0 0 93 70" style="enable-background:new 0 0 93 70;" xml:space="preserve">
<style type="text/css">
	.st0{fill:#F1F1F1;}
	.st1{fill:#B4B9BE;}
	.st2{fill:#D4D6D8;}
	.st3{fill:#FF5252;}
	.st4{fill:#00B9EB;}
	.st5{fill:#32373C;}
	.st6{opacity:0.3;fill:#00B9EB;enable-background:new    ;}
	.st7{fill:#23282D;}
</style>
<g>
	<g>
		<path class="st0" d="M6,69.5c-3,0-5.5-2.5-5.5-5.5V6C0.5,3,3,0.5,6,0.5h72c3,0,5.5,2.5,5.5,5.5v58c0,3-2.5,5.5-5.5,5.5H6z"/>
		<path class="st1" d="M78,1c2.8,0,5,2.2,5,5v58c0,2.8-2.2,5-5,5H6c-2.8,0-5-2.2-5-5V6c0-2.8,2.2-5,5-5H78 M78,0H6C2.7,0,0,2.7,0,6
			v58c0,3.3,2.7,6,6,6h72c3.3,0,6-2.7,6-6V6C84,2.7,81.3,0,78,0L78,0z"/>
	</g>
	<rect x="7" y="8" class="st2" width="33" height="24"/>
	<rect x="10" y="26" class="st3" width="4" height="3"/>
	<rect x="16" y="18" class="st1" width="4" height="11"/>
	<rect x="22" y="10" class="st4" width="4" height="19"/>
	<rect x="28" y="23" class="st3" width="4" height="6"/>
	<rect x="34" y="14" class="st4" width="4" height="15"/>
	<rect x="45" y="39" class="st2" width="33" height="24"/>
	<rect x="7" y="39" class="st2" width="33" height="24"/>
	<rect x="45" y="8" class="st2" width="33" height="24"/>
	<rect x="48" y="42" class="st1" width="27" height="3"/>
	<rect x="48" y="47" class="st1" width="27" height="3"/>
	<rect x="48" y="52" class="st1" width="27" height="3"/>
	<rect x="48" y="57" class="st1" width="27" height="3"/>
	<rect x="57" y="12" class="st4" width="13" height="1"/>
	<rect x="57" y="17" class="st3" width="3" height="1"/>
	<rect x="57" y="22" class="st4" width="8" height="1"/>
	<rect x="57" y="27" class="st4" width="15" height="1"/>
	<rect x="48" y="11" class="st1" width="5" height="3"/>
	<rect x="48" y="16" class="st1" width="5" height="3"/>
	<rect x="48" y="21" class="st1" width="5" height="3"/>
	<rect x="48" y="26" class="st1" width="5" height="3"/>
	<g>
		<path class="st1" d="M24,60L24,60c-5,0-9-4-9-9l0,0c0-5,4-9,9-9l0,0c5,0,9,4,9,9l0,0C33,56,29,60,24,60z"/>
		<path class="st4" d="M19.1,58.5c4.2,2.7,9.7,1.6,12.5-2.6L24,51L19.1,58.5z"/>
		<path class="st3" d="M32.7,48.6L24,51l0,0l7.5,4.9C33,53.7,33.3,51,32.7,48.6z"/>
	</g>
</g>
<g>
	<path class="st5" d="M72.8,50.5c0.3-0.3,0.5-0.6,0.8-0.9l5.2,5c0.3,0.3,0.2,0.9-0.2,1.4c-0.4,0.5-1.1,0.6-1.4,0.3l-5.2-5
		C72.2,51.1,72.5,50.8,72.8,50.5z"/>
	<ellipse transform="matrix(0.6904 -0.7235 0.7235 0.6904 -10.3918 58.5327)" class="st6" cx="63.2" cy="41.4" rx="13" ry="13.1"/>
	<g>
		<path class="st7" d="M63.1,26.7c-3.9,0-7.7,1.5-10.6,4.5c-5.6,5.9-5.4,15.2,0.6,20.8c2.9,2.7,6.6,4.1,10.2,4.1
			c3.9,0,7.7-1.5,10.6-4.5c5.6-5.9,5.4-15.2-0.6-20.8C70.5,28.1,66.8,26.7,63.1,26.7L63.1,26.7z M63.3,54.5c-3.2,0-6.5-1.2-9.1-3.6
			c-5.2-5-5.4-13.2-0.5-18.4c2.5-2.7,6-4,9.4-4c3.2,0,6.5,1.2,9.1,3.6c5.2,5,5.4,13.2,0.5,18.4C70.1,53.1,66.7,54.5,63.3,54.5
			L63.3,54.5z"/>
	</g>
	<path class="st5" d="M53.7,51.4c5.6,5.3,14.3,5.1,19.6-0.4s5-14.3-0.5-19.6c-5.6-5.3-14.3-5.1-19.6,0.4
		C47.9,37.4,48.1,46.1,53.7,51.4z M54.2,50.8c-5.2-5-5.4-13.2-0.5-18.4c5-5.2,13.2-5.4,18.4-0.4s5.4,13.2,0.5,18.4
		S59.5,55.8,54.2,50.8z"/>
	<path class="st7" d="M91.5,68.8l0.6-0.6c0.6-0.6,0.2-2-0.9-3l-15-14.1c-1.1-1-2-0.9-2.6-0.2L73,51.5c-0.6,0.6-0.7,1.5,0.4,2.5
		l15,14.1C89.6,69.1,90.9,69.4,91.5,68.8z"/>
</g>
</svg>
