<?xml version="1.0" encoding="utf-8"?>
<!-- Generator: Adobe Illustrator 24.0.1, SVG Export Plug-In . SVG Version: 6.00 Build 0)  -->
<svg version="1.1" id="Layer_1" xmlns="http://www.w3.org/2000/svg" xmlns:xlink="http://www.w3.org/1999/xlink" x="0px" y="0px"
	 width="124px" height="70px" viewBox="0 0 124 70" style="enable-background:new 0 0 124 70;" xml:space="preserve">
<style type="text/css">
	.st0{fill:#9EA3A8;}
	.st1{fill:#23282D;}
	.st2{fill:#00B9EB;}
	.st3{fill:#F1F1F1;}
</style>
<path class="st0" d="M47,70H23V29.9c0-3.2,2.7-5.9,6-5.9h18V70z"/>
<path class="st0" d="M24,70H5.8C2.6,70,0,67.3,0,64V52c0-3.3,2.6-6,5.8-6H24V70z"/>
<path class="st1" d="M65,0H53c-3.3,0-6,2.7-6,6v64h24V6C71,2.7,68.3,0,65,0z"/>
<circle class="st2" cx="88.9" cy="35.1" r="35"/>
<polygon class="st3" points="90.3,29.8 92.5,13.6 89.9,13.6 73.7,41.2 84.8,41.2 82.7,56.7 85.7,56.7 101.4,29.8 "/>
</svg>
