<?xml version="1.0" encoding="utf-8"?>
<!-- Generator: Adobe Illustrator 24.0.1, SVG Export Plug-In . SVG Version: 6.00 Build 0)  -->
<svg version="1.1" id="Layer_1" xmlns="http://www.w3.org/2000/svg" xmlns:xlink="http://www.w3.org/1999/xlink" x="0px" y="0px"
	 width="70px" height="70px" viewBox="0 0 70 70" style="enable-background:new 0 0 70 70;" xml:space="preserve">
<style type="text/css">
	.st0{fill:#F1F1F1;}
	.st1{fill:#D4D6D8;}
	.st2{fill:#9EA3A8;}
	.st3{fill:#00B9EB;}
</style>
<g>
	<g>
		<circle class="st0" cx="35" cy="35" r="34.5"/>
		<path class="st1" d="M35,1c18.7,0,34,15.3,34,34S53.7,69,35,69S1,53.7,1,35S16.3,1,35,1 M35,0C15.7,0,0,15.7,0,35s15.7,35,35,35
			s35-15.7,35-35S54.3,0,35,0L35,0z"/>
	</g>
	<path class="st2" d="M41.5,26h-21c-3.6,0-6.5-2.9-6.5-6.5l0,0c0-3.6,2.9-6.5,6.5-6.5h21c3.6,0,6.5,2.9,6.5,6.5l0,0
		C48,23.1,45.1,26,41.5,26z"/>
	<path class="st3" d="M56.5,41h-21c-3.6,0-6.5-2.9-6.5-6.5l0,0c0-3.6,2.9-6.5,6.5-6.5h21c3.6,0,6.5,2.9,6.5,6.5l0,0
		C63,38.1,60.1,41,56.5,41z"/>
	<path class="st3" d="M41.5,56h-21c-3.6,0-6.5-2.9-6.5-6.5l0,0c0-3.6,2.9-6.5,6.5-6.5h21c3.6,0,6.5,2.9,6.5,6.5l0,0
		C48,53.1,45.1,56,41.5,56z"/>
	<circle class="st0" cx="40.5" cy="49.5" r="4.5"/>
	<circle class="st0" cx="55.5" cy="34.5" r="4.5"/>
	<circle class="st0" cx="21.5" cy="19.5" r="4.5"/>
</g>
</svg>
